<?xml version="1.0" encoding="UTF-8"?>
<svg width="64.00pt" height="64.00pt" viewBox="0 0 64.00 64.00" color="#232946" version="1.1" xmlns="http://www.w3.org/2000/svg" xmlns:xlink="http://www.w3.org/1999/xlink" preserveAspectRatio="xMidYMid meet">
    <g>
        <path class="highlight" fill="currentColor" fill-rule="nonzero" fill-opacity="1"  d="M 41.960938 1.648438 C 41.675781 1.914062 30.625 20.898438 30.363281 21.585938 C 30.300781 21.761719 30.3125 21.988281 30.386719 22.164062 C 30.550781 22.523438 37.875 26.773438 38.335938 26.773438 C 38.511719 26.773438 38.75 26.675781 38.875 26.550781 C 39.226562 26.199219 50.5 6.613281 50.5 6.363281 C 50.5 6.25 50.398438 6.039062 50.289062 5.898438 C 50.023438 5.613281 43 1.539062 42.574219 1.425781 C 42.375 1.375 42.1875 1.449219 41.960938 1.648438 Z M 41.960938 1.648438 "/>
        <path class="highlight" fill="currentColor" fill-rule="nonzero" fill-opacity="1"  d="M 32.074219 6.023438 C 31.539062 6.886719 29.75 10.074219 29.75 10.199219 C 29.75 10.449219 30.449219 10.898438 33.386719 12.574219 C 33.4375 12.601562 33.988281 11.710938 34.636719 10.585938 C 35.273438 9.476562 35.898438 8.386719 36.023438 8.175781 L 36.261719 7.773438 L 34.460938 6.761719 C 33.476562 6.210938 32.574219 5.75 32.460938 5.75 C 32.351562 5.75 32.175781 5.875 32.074219 6.023438 Z M 32.074219 6.023438 "/>
        <path class="highlight" fill="currentColor" fill-rule="nonzero" fill-opacity="1"  d="M 47.398438 15.460938 C 47.125 15.9375 46.511719 17 46.023438 17.835938 L 45.136719 19.363281 L 47.726562 20.851562 C 49.148438 21.675781 51.6875 23.148438 53.375 24.113281 C 55.449219 25.324219 56.523438 25.875 56.738281 25.851562 C 56.988281 25.824219 57.25 25.449219 58.199219 23.8125 C 58.851562 22.6875 59.363281 21.664062 59.375 21.476562 C 59.375 21.1875 59.210938 21.050781 57.976562 20.335938 C 57.199219 19.886719 54.664062 18.414062 52.324219 17.074219 C 50 15.726562 48.050781 14.625 47.988281 14.625 C 47.9375 14.625 47.664062 15 47.398438 15.460938 Z M 47.398438 15.460938 "/>
        <path class="tertiary"  fill="currentColor" fill-rule="nonzero" fill-opacity="1"  d="M 23.1875 17.4375 C 23 17.613281 22.875 17.875 22.875 18.085938 C 22.875 18.273438 23.210938 19.675781 23.625 21.1875 C 24.414062 24.136719 24.539062 24.375 25.273438 24.375 C 25.710938 24.375 26.25 23.886719 26.25 23.488281 C 26.25 23.238281 25.550781 20.5 24.914062 18.273438 C 24.8125 17.914062 24.613281 17.5 24.460938 17.375 C 24.101562 17.039062 23.550781 17.0625 23.1875 17.4375 Z M 23.1875 17.4375 "/>
        <path class="tertiary"  fill="currentColor" fill-rule="nonzero" fill-opacity="1"  d="M 17.9375 21.3125 C 17.738281 21.5 17.625 21.75 17.625 22.011719 C 17.625 22.375 17.886719 22.675781 19.789062 24.585938 C 20.960938 25.789062 22.074219 26.800781 22.238281 26.835938 C 22.625 26.9375 23.136719 26.648438 23.351562 26.226562 C 23.613281 25.664062 23.289062 25.199219 21.085938 23.023438 C 19.300781 21.261719 18.976562 21 18.636719 21 C 18.375 21 18.125 21.113281 17.9375 21.3125 Z M 17.9375 21.3125 "/>
        <path class="tertiary"  fill="currentColor" fill-rule="nonzero" fill-opacity="1"  d="M 43.835938 23.976562 C 42.125 25.710938 42.011719 25.925781 42.511719 26.550781 C 42.699219 26.800781 42.875 26.875 43.226562 26.875 C 43.648438 26.875 43.8125 26.75 45.199219 25.335938 C 46.039062 24.5 46.75 23.710938 46.789062 23.585938 C 46.886719 23.3125 46.675781 22.761719 46.398438 22.550781 C 46.289062 22.449219 46.011719 22.375 45.8125 22.375 C 45.488281 22.375 45.1875 22.613281 43.835938 23.976562 Z M 43.835938 23.976562 "/>
        <path class="tertiary"  fill="currentColor" fill-rule="nonzero" fill-opacity="1"  d="M 46.9375 26.398438 C 45.75 26.710938 44.960938 26.988281 44.789062 27.164062 C 44.261719 27.636719 44.5 28.625 45.1875 28.800781 C 45.488281 28.875 46.550781 28.636719 48.773438 27.988281 C 49.460938 27.789062 49.664062 27.675781 49.8125 27.375 C 49.925781 27.148438 49.976562 26.875 49.925781 26.6875 C 49.835938 26.324219 49.3125 25.875 49.011719 25.886719 C 48.898438 25.886719 47.976562 26.125 46.9375 26.398438 Z M 46.9375 26.398438 "/>
        <path class="highlight" fill="currentColor" fill-rule="nonzero" fill-opacity="1"  d="M 17.125 38.125 L 17.125 45.5 L 51.875 45.5 L 51.875 30.75 L 17.125 30.75 Z M 17.125 38.125 "/>
        <path class="highlight" fill="currentColor" fill-rule="nonzero" fill-opacity="1"  d="M 5.164062 32.875 C 4.726562 33.050781 4.585938 33.460938 4.664062 34.363281 C 4.738281 35.273438 5.148438 36.5625 5.6875 37.625 C 7.351562 40.914062 10.710938 43.175781 14.351562 43.460938 L 15.375 43.539062 L 15.375 32.75 L 10.414062 32.761719 C 7.675781 32.761719 5.3125 32.8125 5.164062 32.875 Z M 5.164062 32.875 "/>
        <path class="highlight" fill="currentColor" fill-rule="nonzero" fill-opacity="1"  d="M 53.710938 33.835938 C 53.664062 33.875 53.625 35.851562 53.625 38.210938 L 53.625 42.5 L 58.375 42.5 L 58.375 33.75 L 56.085938 33.75 C 54.824219 33.75 53.75 33.789062 53.710938 33.835938 Z M 53.710938 33.835938 "/>
        <path class="highlight" fill="currentColor" fill-rule="nonzero" fill-opacity="1"  d="M 22.1875 47.773438 C 21.9375 49.375 21.363281 51.136719 20.289062 53.585938 C 20.238281 53.710938 23.136719 53.75 34.539062 53.75 L 48.863281 53.75 L 48.1875 52.210938 C 47.585938 50.851562 47.023438 49.039062 46.8125 47.710938 L 46.738281 47.25 L 22.273438 47.25 Z M 22.1875 47.773438 "/>
        <path class="highlight" fill="currentColor" fill-rule="nonzero" fill-opacity="1"  d="M 17.125 59.0625 L 17.125 62.625 L 51.875 62.625 L 51.875 55.5 L 17.125 55.5 Z M 17.125 59.0625 "/>
    </g>
</svg>
