<?xml version="1.0" encoding="UTF-8"?>
<svg width="450.000pt" height="450.000pt" viewBox="0 0 450 450" version="1.0" xmlns="http://www.w3.org/2000/svg">
<g>
<path style=" stroke:none;fill-rule:nonzero;fill:#1a1f2f;fill-opacity:1;" d="M 295.050781 11.601562 C 293.027344 13.445312 215.332031 146.953125 213.488281 151.785156 C 213.046875 153.015625 213.136719 154.597656 213.664062 155.828125 C 214.804688 158.378906 266.308594 188.261719 269.5625 188.261719 C 270.792969 188.261719 272.460938 187.558594 273.339844 186.679688 C 275.800781 184.21875 355.078125 46.492188 355.078125 44.734375 C 355.078125 43.945312 354.375 42.449219 353.585938 41.484375 C 351.738281 39.460938 302.34375 10.808594 299.355469 10.019531 C 297.949219 9.667969 296.632812 10.195312 295.050781 11.601562 Z M 295.050781 11.601562 "/>
<path style=" stroke:none;fill-rule:nonzero;fill:#1a1f2f;fill-opacity:1;" d="M 225.527344 42.363281 C 221.75 48.425781 209.179688 70.839844 209.179688 71.71875 C 209.179688 73.476562 214.101562 76.640625 234.757812 88.417969 C 235.109375 88.59375 238.976562 82.351562 243.546875 74.441406 C 248.027344 66.621094 252.421875 58.972656 253.300781 57.480469 L 254.972656 54.667969 L 242.316406 47.546875 C 235.371094 43.679688 229.042969 40.429688 228.253906 40.429688 C 227.460938 40.429688 226.230469 41.308594 225.527344 42.363281 Z M 225.527344 42.363281 "/>
<path style=" stroke:none;fill-rule:nonzero;fill:#1a1f2f;fill-opacity:1;" d="M 333.28125 108.71875 C 331.347656 112.058594 327.042969 119.53125 323.613281 125.417969 L 317.375 136.140625 L 335.566406 146.601562 C 345.585938 152.402344 363.429688 162.773438 375.292969 169.539062 C 389.882812 178.066406 397.441406 181.933594 398.9375 181.757812 C 400.695312 181.582031 402.539062 178.945312 409.21875 167.429688 C 413.789062 159.519531 417.394531 152.3125 417.480469 150.996094 C 417.480469 148.972656 416.339844 148.007812 407.636719 142.996094 C 402.1875 139.832031 384.347656 129.460938 367.910156 120.058594 C 351.5625 110.566406 337.851562 102.832031 337.414062 102.832031 C 337.0625 102.832031 335.128906 105.46875 333.28125 108.71875 Z M 333.28125 108.71875 "/>
<path style=" stroke:none;fill-rule:nonzero;fill:#1a1f2f;fill-opacity:1;" d="M 163.039062 122.605469 C 161.71875 123.835938 160.839844 125.683594 160.839844 127.175781 C 160.839844 128.496094 163.214844 138.339844 166.113281 148.972656 C 171.652344 169.714844 172.53125 171.386719 177.714844 171.386719 C 180.792969 171.386719 184.570312 167.957031 184.570312 165.144531 C 184.570312 163.386719 179.648438 144.140625 175.167969 128.496094 C 174.464844 125.945312 173.058594 123.046875 172.003906 122.167969 C 169.453125 119.792969 165.585938 119.96875 163.039062 122.605469 Z M 163.039062 122.605469 "/>
<path style=" stroke:none;fill-rule:nonzero;fill:#1a1f2f;fill-opacity:1;" d="M 126.125 149.851562 C 124.71875 151.171875 123.925781 152.929688 123.925781 154.773438 C 123.925781 157.324219 125.773438 159.433594 139.132812 172.878906 C 147.394531 181.316406 155.214844 188.4375 156.359375 188.699219 C 159.082031 189.402344 162.6875 187.382812 164.179688 184.394531 C 166.027344 180.4375 163.742188 177.1875 148.273438 161.894531 C 135.703125 149.5 133.417969 147.65625 131.046875 147.65625 C 129.199219 147.65625 127.441406 148.445312 126.125 149.851562 Z M 126.125 149.851562 "/>
<path style=" stroke:none;fill-rule:nonzero;fill:#1a1f2f;fill-opacity:1;" d="M 308.234375 168.574219 C 296.191406 180.789062 295.402344 182.285156 298.917969 186.679688 C 300.234375 188.4375 301.464844 188.964844 303.925781 188.964844 C 306.914062 188.964844 308.058594 188.085938 317.8125 178.152344 C 323.703125 172.265625 328.710938 166.726562 328.976562 165.847656 C 329.679688 163.914062 328.183594 160.046875 326.25 158.554688 C 325.460938 157.851562 323.527344 157.324219 322.121094 157.324219 C 319.835938 157.324219 317.726562 158.992188 308.234375 168.574219 Z M 308.234375 168.574219 "/>
<path style=" stroke:none;fill-rule:nonzero;fill:#1a1f2f;fill-opacity:1;" d="M 330.03125 185.625 C 321.679688 187.820312 316.144531 189.753906 314.914062 190.984375 C 311.222656 194.324219 312.890625 201.269531 317.726562 202.5 C 319.835938 203.027344 327.304688 201.355469 342.949219 196.785156 C 347.785156 195.378906 349.191406 194.589844 350.246094 192.480469 C 351.035156 190.898438 351.386719 188.964844 351.035156 187.644531 C 350.421875 185.097656 346.730469 181.933594 344.621094 182.019531 C 343.828125 182.019531 337.324219 183.691406 330.03125 185.625 Z M 330.03125 185.625 "/>
<path style=" stroke:none;fill-rule:nonzero;fill:#1a1f2f;fill-opacity:1;" d="M 120.410156 268.066406 L 120.410156 319.921875 L 364.746094 319.921875 L 364.746094 216.210938 L 120.410156 216.210938 Z M 120.410156 268.066406 "/>
<path style=" stroke:none;fill-rule:nonzero;fill:#1a1f2f;fill-opacity:1;" d="M 36.300781 231.152344 C 33.222656 232.382812 32.257812 235.28125 32.785156 241.609375 C 33.3125 248.027344 36.210938 257.078125 39.992188 264.550781 C 51.679688 287.664062 75.324219 303.574219 100.898438 305.59375 L 108.105469 306.121094 L 108.105469 230.273438 L 73.214844 230.359375 C 53.964844 230.359375 37.355469 230.710938 36.300781 231.152344 Z M 36.300781 231.152344 "/>
<path style=" stroke:none;fill-rule:nonzero;fill:#1a1f2f;fill-opacity:1;" d="M 377.667969 237.917969 C 377.316406 238.183594 377.050781 252.070312 377.050781 268.679688 L 377.050781 298.828125 L 410.449219 298.828125 L 410.449219 237.304688 L 394.367188 237.304688 C 385.488281 237.304688 377.929688 237.566406 377.667969 237.917969 Z M 377.667969 237.917969 "/>
<path style=" stroke:none;fill-rule:nonzero;fill:#1a1f2f;fill-opacity:1;" d="M 156.007812 335.917969 C 154.25 347.167969 150.207031 359.558594 142.648438 376.785156 C 142.296875 377.664062 162.6875 377.929688 242.84375 377.929688 L 343.566406 377.929688 L 338.820312 367.117188 C 334.601562 357.539062 330.644531 344.792969 329.152344 335.476562 L 328.625 332.226562 L 156.621094 332.226562 Z M 156.007812 335.917969 "/>
<path style=" stroke:none;fill-rule:nonzero;fill:#1a1f2f;fill-opacity:1;" d="M 120.410156 415.28125 L 120.410156 440.332031 L 364.746094 440.332031 L 364.746094 390.234375 L 120.410156 390.234375 Z M 120.410156 415.28125 "/>
</g>
</svg>
