<?xml version="1.0" encoding="UTF-8"?>
<svg width="128.000pt" height="128.000pt" viewBox="0 0 128.000 128.000" color="#232946" version="1.0" xmlns="http://www.w3.org/2000/svg" xmlns:xlink="http://www.w3.org/1999/xlink" preserveAspectRatio="xMidYMid meet">
    <g stroke-width="3">
        <path   class="tertiary" color="#e45858" fill="currentColor" fill-rule="nonzero" fill-opacity="1" d="M69.305 8.45L72.802 14.026C75.2076 17.8631 80.1992 19.1402 84.152 16.93L89.386 14.003C93.052 11.953 97.57 14.603 97.57 18.803V24.463C97.5704 28.8664 100.9337 32.5405 105.32 32.929L110.961 33.429C115.08 33.794 117.338 38.404 115.101 41.882L112.232 46.344C109.614 50.414 110.918 55.845 115.097 58.284L119.66 60.946C123.336 63.091 123.288 68.42 119.572 70.497L115.09 73.004C110.9117 75.3408 109.4866 80.6655 111.939 84.777L113.452 87.313C115.638 90.979 112.997 95.63 108.728 95.63H104.5C99.8056 95.63 96 99.4356 96 104.13V109.531C96 113.764 91.418 116.41 87.751 114.294L84.069 112.17C80.1746 109.9221 75.2032 111.0963 72.726 114.849L69.234 120.141C67.035 123.471 62.133 123.426 59.998 120.055L56.708 114.864C54.3254 111.104 49.4454 109.819 45.52 111.918L40.094 114.82C36.43 116.779 32 114.125 32 109.97V105.696C32 101.0016 28.1944 97.196 23.5 97.196H18.811C14.72 97.196 12.061 92.887 13.895 89.23L16.309 84.418C18.3319 80.3856 16.8521 75.4753 12.938 73.232L8.118 70.469C4.471 68.379 4.422 63.135 8.03 60.977L12.973 58.021C16.8701 55.6903 18.2471 50.7082 16.1 46.707L12.753 40.47C10.786 36.806 13.441 32.37 17.599 32.37H23.5C28.1944 32.37 32 28.5644 32 23.87V18.804C32 14.604 36.518 11.954 40.184 14.004L45.312 16.87C49.3167 19.1089 54.3755 17.7657 56.742 13.835L59.933 8.535C62.048 5.021 67.126 4.975 69.305 8.449Z"/>
        <circle class="highlight" color="#6246ea" fill="currentColor" fill-rule="nonzero" fill-opacity="1" cx="64.5" cy="64.5" r="44"/>
        <path   color="transparent" fill="currentColor" fill-rule="nonzero" fill-opacity="1" stroke-linecap="round" d="M80 53C80 49.151 75.8333 46.7454 72.5 48.6699C70.953 49.563 70 51.2137 70 53M62 57C62 60.849 57.8333 63.2546 54.5 61.3301C52.953 60.437 52 58.7863 52 57M44 53C44 49.151 39.8333 46.7454 36.5 48.6699C34.953 49.563 34 51.2137 34 53"/>
    </g>
</svg>
