<?xml version="1.0" encoding="UTF-8"?>
<svg width="64.00pt" height="64.00pt" viewBox="0 0 64.00 64.00" color="#232946" version="1.0" xmlns="http://www.w3.org/2000/svg" xmlns:xlink="http://www.w3.org/1999/xlink" preserveAspectRatio="xMidYMid meet">
    <g>
        <path fill="currentColor" fill-rule="nonzero" fill-opacity="1" d="M30.2 6.2c-.8.8-1.2 6.1-1.2 17.1 0 18.2 1 17.4-9.5 8.3-5.3-4.7-5.7-4.8-7.3-3.2-1.6 1.7-1.4 2 3.8 6.8 3 2.7 7.9 7 10.7 9.5l5.3 4.5 4.2-3.5c2.4-1.9 7.2-6.2 10.8-9.6 6-5.7 6.3-6.2 4.8-7.7-1.6-1.6-2-1.4-6.5 2.3-2.6 2.3-5.7 5-6.7 6.2-1.1 1.1-2.3 2.1-2.8 2.1-.4 0-.8-6.8-.8-15.1 0-17-1.2-21.3-4.8-17.7"/>
        <path fill="currentColor" fill-rule="nonzero" fill-opacity="1" d="M5.9 54.6c-1.1 1.4-1 1.8.6 3 2.8 2 48.2 2 51 0 1.6-1.2 1.7-1.6.6-3C56.9 53.2 53.5 53 32 53s-24.9.2-26.1 1.6"/>
    </g>
</svg>
