<?xml version="1.0" encoding="UTF-8"?>
<svg width="64.00pt" height="64.00pt" viewBox="0 0 64.00 64.00" color="#232946" version="1.0" xmlns="http://www.w3.org/2000/svg" xmlns:xlink="http://www.w3.org/1999/xlink" preserveAspectRatio="xMidYMid meet">
    <g>
        <path fill="currentColor" fill-rule="nonzero" fill-opacity="1" d="M4.5 13.1c-.4.6-.3 1.5.2 2s12.2.8 27.9.7c23.1-.3 26.9-.5 26.9-1.8s-3.8-1.5-27.2-1.8c-19-.2-27.4.1-27.8.9"/>
        <path fill="currentColor" fill-rule="nonzero" fill-opacity="1" d="M4.5 31.1c-1.6 2.5 2 2.9 24.1 2.7 19.6-.3 22.9-.5 22.9-1.8s-3.4-1.5-23.2-1.8c-16.1-.2-23.4.1-23.8.9"/>
        <path fill="currentColor" fill-rule="nonzero" fill-opacity="1" d="M4.5 49.1C3 51.5 6.2 52 19.6 51.8c11.6-.3 13.9-.6 13.9-1.8s-2.4-1.5-14.2-1.8c-9.6-.2-14.4.1-14.8.9"/>
    </g>
</svg>
