<?xml version="1.0" encoding="UTF-8"?>
<svg width="64.00pt" height="64.00pt" viewBox="0 0 64.00 64.00" color="#232946" version="1.0" xmlns="http://www.w3.org/2000/svg" xmlns:xlink="http://www.w3.org/1999/xlink" preserveAspectRatio="xMidYMid meet">
    <g>
        <path fill="currentColor" fill-rule="nonzero" fill-opacity="1" d="M22 1.6C-.7 9.8-7.3 37.8 9.5 54.5c6.5 6.6 12.5 9 22.5 9s16-2.4 22.5-9c6.6-6.5 9-12.5 9-22.5s-2.4-16-9-22.5C46.3 1.3 32.3-2.1 22 1.6m23.2 7.1c9.2 5.1 14.6 15.5 13.5 26.1-1.5 14.5-14.9 25.4-29.5 23.9C14.7 57.2 3.8 43.8 5.3 29.2 6.4 19 14.5 9.1 24.4 6c5.7-1.7 15-.5 20.8 2.7"/>
        <path fill="currentColor" fill-rule="nonzero" fill-opacity="1" d="M30.2 13.2c-1.6 1.6-1.5 3.3.4 4.8 2.2 1.9 5.4-1.2 3.8-3.7-1.4-2.2-2.7-2.6-4.2-1.1M25 27c0 1.2.9 2.2 2.3 2.5 2 .5 2.2 1.1 2 7.2-.1 5.8-.4 6.8-2.2 7.5-1.2.4-2.1 1.6-2.1 2.8 0 1.8.6 2 7 2s7-.2 7-2c0-1.2-.9-2.4-2.2-2.9-1.9-.7-2.1-1.4-1.9-7.9.3-10.3-.1-11.2-5.5-11.2-3.7 0-4.4.3-4.4 2"/>
    </g>
</svg>
