<?xml version="1.0" encoding="UTF-8"?>
<svg width="64.00pt" height="64.00pt" viewBox="0 0 64.00 64.00" color="#232946" version="1.0" xmlns="http://www.w3.org/2000/svg" xmlns:xlink="http://www.w3.org/1999/xlink" preserveAspectRatio="xMidYMid meet">
    <g>
        <path fill="currentColor" fill-rule="nonzero" fill-opacity="1" d="M21.2 9.1c-4.8 1.4-10.9 8-12.3 13.1-4.3 16.1 10.5 30 26 24.4l4.5-1.6 5.6 5.5c5.6 5.6 7.6 6.5 9.8 4.3s1.3-4.2-4.3-9.8L45 39.4l1.6-4.5c3.1-8.7 0-18.5-7.6-23.5-4.3-2.9-12.5-3.9-17.8-2.3m13.9 7.2c4.5 3 7.1 8.2 6.5 13-1.6 13.3-17.9 17-25.3 5.8-7.9-11.8 7-26.7 18.8-18.8"/>
    </g>
</svg>
