<?xml version="1.0" encoding="UTF-8"?>
<svg width="64.00pt" height="64.00pt" viewBox="0 0 64.00 64.00" color="#232946" version="1.0" xmlns="http://www.w3.org/2000/svg" xmlns:xlink="http://www.w3.org/1999/xlink" preserveAspectRatio="xMidYMid meet">
    <g>
        <path fill="currentColor" fill-rule="nonzero" fill-opacity="1" d="M30.7 10.6c-.4.4-.7 4.9-.7 10v9.3l-9.7.3c-7.9.2-9.8.6-9.8 1.8s1.9 1.6 9.7 1.8l9.7.3.3 9.7c.2 7.8.6 9.7 1.8 9.7s1.6-1.9 1.8-9.7l.3-9.7 9.7-.3c7.8-.2 9.7-.6 9.7-1.8s-1.9-1.6-9.7-1.8l-9.7-.3-.3-9.6c-.3-8.9-1.2-11.6-3.1-9.7"/>
    </g>
</svg>
