<?xml version="1.0" encoding="UTF-8"?>
<svg width="64.00pt" height="64.00pt" viewBox="0 0 64.00 64.00" color="#232946" version="1.0" xmlns="http://www.w3.org/2000/svg" xmlns:xlink="http://www.w3.org/1999/xlink" preserveAspectRatio="xMidYMid meet">
    <g>
        <path fill="currentColor" fill-rule="nonzero" fill-opacity="1" d="M22 1.6C-.7 9.8-7.3 37.8 9.5 54.5c6.5 6.6 12.5 9 22.5 9s16-2.4 22.5-9c6.6-6.5 9-12.5 9-22.5s-2.4-16-9-22.5C46.3 1.3 32.3-2.1 22 1.6m19 4C51.5 8.7 60 20.5 60 32c0 15-13 28-28 28S4 47 4 32C4 17.1 16.6 4.3 31.6 4.1c2.2-.1 6.4.6 9.4 1.5"/>
        <path fill="currentColor" fill-rule="nonzero" fill-opacity="1" d="M35.8 29.7 26 39.4l-4-3.9c-3.1-3.1-4.3-3.6-5.2-2.7-1 1-.1 2.3 4 6.5l5.2 5.2 11-11c6.1-6 10.9-11.4 10.7-11.9-.8-2.4-2.8-1-11.9 8.1"/>
    </g>
</svg>
