<?xml version="1.0" encoding="UTF-8"?>
<svg width="64.00pt" height="64.00pt" viewBox="0 0 64.00 64.00" color="#232946" version="1.0" xmlns="http://www.w3.org/2000/svg" xmlns:xlink="http://www.w3.org/1999/xlink" preserveAspectRatio="xMidYMid meet">
    <g>
        <path fill="currentColor" fill-rule="nonzero" fill-opacity="1" d="M27.6 4C18.3 6.9 14 19.1 19.4 27.1 27.8 39.4 47 33.6 47 18.8 47 8.8 36.9 1.1 27.6 4m8.7 4.4c7.1 2.9 9 12 3.8 17.8-2.6 2.9-3.5 3.3-8.1 3.3s-5.5-.4-8.1-3.3c-5.1-5.7-3.3-14.8 3.6-17.8 3.8-1.7 4.9-1.7 8.8 0"/>
        <path fill="currentColor" fill-rule="nonzero" fill-opacity="1" d="M19.1 36.2c-5 1.4-8.9 4.7-11.1 9.3-2.5 5.2-2.5 9.6-.1 12.6 1.9 2.4 2 2.4 24.1 2.4s22.2 0 24.1-2.4c2.4-3 2.4-7.4-.1-12.6-2.3-4.8-6.1-7.9-11.6-9.4-4.7-1.3-20.6-1.3-25.3.1M43 39.6c7.3 1.5 14 12.8 9.5 16.1-2.7 1.9-38.3 1.9-41 0-4.1-3.1 2.2-14.7 8.7-16 3.7-.7 19.3-.7 22.8-.1"/>
    </g>
</svg>
