<?xml version="1.0" encoding="UTF-8"?>
<svg width="64.00pt" height="64.00pt" viewBox="0 0 64.00 64.00" color="#232946" version="1.0" xmlns="http://www.w3.org/2000/svg" xmlns:xlink="http://www.w3.org/1999/xlink" preserveAspectRatio="xMidYMid meet">
    <g>
        <path fill="currentColor" fill-rule="nonzero" fill-opacity="1" d="M25.1 5.7C20.9 9.6 0 46 0 49.4c0 3.5 2.4 8.1 5.2 10 3.3 2.4 50.3 2.4 53.6 0 2.8-1.9 5.2-6.5 5.2-9.9 0-3.3-20.2-38.7-24.6-43.3-4.3-4.3-10-4.5-14.3-.5m11.1 4C39 13 59 48.5 59 50.2c0 1-.9 2.7-2 3.8-1.9 1.9-3.3 2-25 2s-23.1-.1-25-2c-1.1-1.1-2-2.8-2-3.8C5 48.5 25 13 27.8 9.7 28.6 8.8 30.5 8 32 8s3.4.8 4.2 1.7"/>
        <path fill="currentColor" fill-rule="nonzero" fill-opacity="1" d="M29.7 21.6c-1.4 1.4-.8 16.9.7 19 2.7 3.6 4.1.3 4.1-9.9 0-8.5-.2-9.2-2-9.5-1.2-.2-2.4 0-2.8.4M29.4 45.4c-1 2.6.4 4.8 2.8 4.4 1.7-.2 2.3-1 2.3-2.8s-.6-2.6-2.3-2.8c-1.3-.2-2.5.3-2.8 1.2"/>
    </g>
</svg>
