<?xml version="1.0" encoding="UTF-8"?>
<svg width="64.00pt" height="64.00pt" viewBox="0 0 64.00 64.00" color="#232946" version="1.0" xmlns="http://www.w3.org/2000/svg" xmlns:xlink="http://www.w3.org/1999/xlink" preserveAspectRatio="xMidYMid meet">
    <g>
        <path fill="currentColor" fill-rule="nonzero" fill-opacity="1" d="M31 3.5c0 1.9.5 3.5 1 3.5.6 0 1-1.6 1-3.5S32.6 0 32 0c-.5 0-1 1.6-1 3.5M16 4.8c0 1.9 1.9 5.2 3 5.2 1.5 0 1.2-1.2-1-4-1.1-1.4-2-1.9-2-1.2m29.5 1.8c-2 3-1 4.8 1.1 2 1.3-1.8 1.9-4.6 1-4.6-.2 0-1.1 1.2-2.1 2.6m-21 4.9C16.8 14.2 10 23.9 10 32c0 11.2 10.8 22 22 22s22-10.8 22-22c0-5.5-2.3-10.6-6.9-15.1-6.6-6.6-14.1-8.4-22.6-5.4m16.6 3.3c4.3 2.2 5.9 3.8 8.1 8.1 3.6 6.8 3.6 11.4 0 18.2-2.2 4.3-3.8 5.9-8.1 8.1-6.8 3.6-11.4 3.6-18.2 0-4.3-2.2-5.9-3.8-8.1-8.1-3.6-6.8-3.6-11.4 0-18.2 2.2-4.3 3.8-5.9 8.1-8.1C26 13.2 29.8 12 32 12s6 1.2 9.1 2.8M17 55.9c-1.7 3.3-1.1 4.7 1 2.1 1.1-1.4 2-2.8 2-3.3 0-1.4-2-.7-3 1.2m27-1.2c0 .5.9 1.9 2 3.3 2.1 2.6 2.7 1.2 1-2.1-1-1.9-3-2.6-3-1.2m-13 5.8c0 1.9.5 3.5 1 3.5.6 0 1-1.6 1-3.5s-.4-3.5-1-3.5c-.5 0-1 1.6-1 3.5"/>
        <path fill="currentColor" fill-rule="nonzero" fill-opacity="1" d="M24 19.6c-4 3.4-6 7.4-6 11.9C18 45 34 51.8 43.4 42.3c3.4-3.4 3.3-4.3-.8-4.3-3.7 0-8.9-3.1-12-7.3-1.5-2-2-4.3-2-8.2 0-3-.3-5.5-.7-5.5s-2.1 1.2-3.9 2.6M6 18c2.8 2.2 4 2.5 4 1 0-1.1-3.3-3-5.2-3-.7 0-.2.9 1.2 2m49.8-.9c-1.8 1-2.5 2.9-1 2.9.4 0 1.8-.9 3.2-2 2.7-2.1 1-2.8-2.2-.9M0 32c0 .5 1.6 1 3.5 1S7 32.5 7 32c0-.6-1.6-1-3.5-1S0 31.4 0 32m57 0c0 .5 1.6 1 3.5 1s3.5-.5 3.5-1c0-.6-1.6-1-3.5-1s-3.5.4-3.5 1M6 46c-1.4 1.1-1.9 2-1.2 2 1.9 0 5.2-1.9 5.2-3 0-1.5-1.2-1.2-4 1m48-1c0 1.1 3.3 3 5.2 3 .7 0 .2-.9-1.2-2-2.8-2.2-4-2.5-4-1" />
    </g>
</svg>
